<svg width="208" height="282" viewBox="0 0 208 282" fill="none" xmlns="http://www.w3.org/2000/svg">
<path d="M206.942 89.2597C205.258 88.4176 204.416 88.8386 200.207 87.9965C204.837 83.786 209.046 79.1544 207.362 76.207C205.679 77.8912 203.574 79.5754 200.207 82.5228C203.995 77.8912 206.942 73.2597 205.679 71.1544C204.416 72.4175 201.469 74.1018 198.523 77.0491C201.048 71.9965 202.732 68.6281 201.048 66.5228C194.734 73.2597 189.262 80.8386 183.79 88.4175C182.106 89.2597 180.422 90.1018 178.739 90.9439C178.318 90.5228 177.897 90.1018 177.476 89.6807C174.529 90.5228 171.583 91.786 169.057 93.0491C164.427 87.1544 160.217 80.4175 157.692 73.2597C157.692 69.4702 156.008 65.6807 153.482 63.1544C152.64 61.4702 152.219 59.3649 151.378 57.2597C151.378 57.2597 151.378 56.8386 151.799 56.4175L151.378 55.9965C151.378 55.5754 151.378 55.1544 151.378 55.1544C150.957 52.207 150.115 49.2597 149.694 46.3123C147.589 35.786 145.064 25.2597 141.275 15.1544C140.012 16.8386 138.329 18.9439 136.645 20.207C132.014 15.1544 126.542 10.9439 120.228 7.9965C119.386 6.31228 118.544 4.62807 117.703 3.36492C117.282 4.20702 116.44 5.04913 115.598 6.31228C104.232 1.68071 91.6043 -0.00350523 79.3971 1.25965C74.3458 1.68071 65.0852 5.89123 54.9827 15.1544C53.2989 16.8386 52.0361 18.5228 51.1942 20.207C46.5639 26.1018 42.7755 32.8386 40.2498 39.5754C39.4079 39.1544 38.987 38.7333 38.1451 38.3123C38.1451 39.9965 38.5661 41.2597 38.5661 42.9439C29.3054 69.8912 33.9357 84.207 18.361 94.7333C15.8354 90.9439 11.2051 89.6807 6.99567 90.9439C6.57473 90.9439 6.57473 90.9439 6.15379 91.3649C6.15379 90.9439 5.31192 90.5228 4.89098 90.9439C4.47004 91.3649 4.0491 91.786 4.47004 92.6281C0.260654 95.5754 -1.00216 101.049 1.52347 105.26C4.0491 109.891 10.3632 111.575 14.9935 109.049L15.4144 109.47C15.8354 109.891 16.6773 109.891 17.0982 109.47C17.5191 109.049 17.5191 108.207 17.0982 107.786H16.6773C19.6238 105.26 20.8866 101.049 19.2029 97.2597C19.2029 96.8386 18.782 96.4175 18.782 96.4175C30.1473 96.4175 41.0917 91.786 48.6686 83.3649C46.5639 109.049 43.6173 116.207 28.8845 128.418C41.5126 121.681 47.8267 113.681 50.7733 95.9965C51.1942 97.6807 51.6152 98.9439 52.457 100.207C51.6152 115.786 47.8267 127.575 43.1964 133.47C34.3567 130.523 25.096 128.418 16.2563 127.154C16.2563 129.681 20.0448 131.365 24.6751 133.891C20.8866 133.891 17.5191 133.891 15.8354 133.891C16.2563 136.418 21.7285 138.102 27.6217 139.365C23.4123 139.365 20.4657 139.365 17.9401 138.944C18.361 142.312 24.6751 143.154 30.9892 143.997C28.0426 147.365 27.2007 147.365 26.3588 149.049C25.9379 149.891 25.9379 152.418 27.6217 151.575C36.4614 147.365 43.6173 149.47 47.4058 146.523L47.8267 146.102L50.7733 145.681C51.1942 146.944 51.1942 148.207 51.6152 149.049C54.9827 149.049 58.3502 148.628 61.7177 148.207C62.1386 148.207 62.1386 147.786 61.7177 147.365L67.1899 146.944C75.6087 148.628 84.0274 149.47 92.4462 149.47C94.13 158.733 95.8137 167.997 96.6556 172.628L97.0765 178.102C97.0765 192.839 95.8137 205.47 94.9718 213.891C95.8137 213.47 96.6556 212.628 97.0765 211.786C96.6556 215.154 96.2347 217.681 96.2347 217.681C97.4975 218.102 98.7603 218.102 100.023 218.523V219.786V221.47V221.891V223.154L99.6022 227.786V230.312L99.1812 234.523L98.7603 237.891L97.0765 242.102C97.0765 243.365 97.0765 244.207 96.6556 245.47L96.2347 249.681C94.9718 249.681 93.709 249.681 92.4462 250.102C91.6043 252.628 91.6043 255.575 92.4462 258.102H92.8672C92.4462 260.628 92.0253 263.575 92.0253 264.839C88.6578 266.944 85.2903 268.628 81.9227 270.312C78.5552 271.575 76.0296 271.154 75.1877 269.049C74.3458 267.365 74.3458 265.26 75.1877 263.575C76.4505 264.418 78.1343 263.996 78.9762 263.575C80.6599 262.312 81.0809 260.207 79.8181 258.102C78.5552 256.418 76.4505 255.996 74.3458 257.26C72.6621 258.523 72.2412 260.628 73.504 262.733C70.9783 264.839 69.7155 267.786 69.7155 271.154C69.2946 274.523 70.9783 277.891 74.3458 279.996C76.4505 280.839 78.5552 281.681 81.0809 281.681C91.6043 281.26 102.128 280.418 112.651 278.733C112.651 274.944 113.914 265.26 114.335 259.786C114.335 259.786 114.335 259.786 114.756 259.786C116.019 257.26 116.019 254.312 115.598 251.786C114.756 251.365 114.335 251.365 113.493 251.365C114.756 242.523 116.861 231.154 118.123 221.049C127.805 220.207 137.066 217.681 145.905 213.891C154.324 210.102 161.901 203.786 167.794 196.207V196.628L166.531 199.997L165.69 202.102L164.006 205.891L161.48 212.628L160.217 215.575L159.796 217.26C158.955 216.839 157.692 216.418 156.85 216.418C156.008 216.839 153.482 223.154 153.903 223.997H154.324L153.903 224.839C151.799 229.891 148.431 238.312 147.168 242.102C156.008 247.575 165.269 252.628 174.95 257.26C177.055 258.102 179.581 258.523 181.685 258.523C185.053 258.102 187.999 255.575 189.262 252.207C190.946 248.418 190.104 244.207 187.578 240.839C188.841 239.575 189.262 237.47 187.999 235.786C186.736 234.102 184.211 233.681 182.527 234.944C180.843 236.207 180.422 238.733 181.685 240.418C182.948 242.102 185.474 242.523 187.157 241.26C187.578 243.786 186.736 246.312 185.053 248.418C183.369 250.102 180.843 249.26 178.318 246.733C175.792 243.786 173.266 240.839 171.162 237.47C171.583 236.628 172.425 234.523 173.687 232.418V231.996H174.108C175.792 229.891 177.055 227.365 177.476 224.839C177.055 223.997 176.213 223.575 175.371 223.154C178.739 216.418 182.527 207.997 186.316 199.997L188.841 194.523C190.525 189.891 189.683 184.839 186.316 181.47L185.895 181.049C184.211 179.786 182.106 178.523 180.001 177.681C180.422 177.26 180.001 176.418 179.16 176.418C177.476 175.575 175.371 175.154 173.687 174.312C174.95 173.891 176.213 173.47 177.476 173.049C169.899 170.523 162.322 167.154 155.166 163.786L153.061 157.891L152.64 158.312C151.378 153.681 149.694 146.944 147.589 139.786C149.694 139.365 151.799 138.523 153.903 137.26C156.85 132.628 158.534 127.154 158.113 121.681L162.743 118.733C164.006 123.365 163.585 127.996 161.48 132.628C165.269 127.996 166.952 122.102 166.531 116.207C170.32 113.681 174.108 111.154 177.476 109.049C177.476 109.47 177.476 109.891 177.897 109.891C180.843 108.207 183.79 106.102 186.316 103.997C185.895 103.154 185.474 102.312 184.632 101.049L187.157 99.3649C187.578 99.3649 187.578 99.3649 187.999 99.3649C192.63 98.9439 196.839 93.0491 206.521 90.9439C209.046 91.786 207.362 89.6807 206.942 89.2597ZM48.2477 132.628L46.5639 133.049C47.4058 132.628 48.2477 131.786 48.6686 130.944C48.2477 131.365 48.2477 132.207 48.2477 132.628ZM52.0361 84.6281C52.0361 83.3649 52.0361 82.1018 52.457 80.8386V81.2597C52.457 82.1018 52.457 83.3649 52.457 84.207L52.0361 84.6281ZM60.8758 128.418H60.4549C60.8758 127.154 61.2968 126.312 61.2968 125.891C61.2968 126.312 61.2968 127.154 60.8758 128.418ZM76.0296 87.1544C75.6087 86.7333 75.1877 86.3123 74.7668 85.8912C71.3993 81.6807 71.8202 75.3649 76.0296 71.9965C79.8181 68.207 86.1321 68.207 89.9206 71.9965C94.13 75.786 94.9718 80.4176 92.8672 82.9439C89.9206 87.1544 80.6599 90.1018 76.0296 87.1544ZM108.863 103.154C100.865 105.26 91.1834 100.628 90.7625 94.3123C90.3415 90.9439 95.8137 90.5228 103.391 88.4175L105.916 87.5754C113.914 85.4702 118.544 83.3649 119.807 86.3123C122.754 92.6281 116.861 101.049 108.863 103.154ZM130.752 72.4176C128.226 77.4702 118.544 79.1544 113.914 77.4702C110.547 76.207 108.863 71.5754 110.968 66.5228C112.651 61.4702 117.703 58.1018 123.175 59.3649C123.596 59.3649 124.017 59.786 124.438 59.786C129.91 61.4702 132.435 66.9439 130.752 72.4176ZM161.48 97.2597C159.796 93.0491 158.113 87.9965 156.008 82.1018C156.429 80.8386 156.85 79.9965 156.85 78.7333C159.375 84.207 162.743 89.6807 166.952 94.3123C165.269 95.1544 163.585 96.4175 161.48 97.2597Z" fill="#631314"/>
</svg>
